<svg xmlns="http://www.w3.org/2000/svg" version="1.1" xmlns:xlink="http://www.w3.org/1999/xlink" xmlns:svgjs="http://svgjs.dev/svgjs" width="1000" height="623" viewBox="0 0 1000 623"><g transform="matrix(1,0,0,1,-0.6060606060606233,72.43850881282452)"><svg viewBox="0 0 396 247" data-background-color="#ffffff" preserveAspectRatio="xMidYMid meet" height="623" width="1000" xmlns="http://www.w3.org/2000/svg" xmlns:xlink="http://www.w3.org/1999/xlink"><g id="tight-bounds" transform="matrix(1,0,0,1,0.2400000000000091,-0.09999999999999432)"><svg viewBox="0 0 395.52 247.2" height="247.2" width="395.52"><g><svg></svg></g><g><svg viewBox="0 0 395.52 247.2" height="247.2" width="395.52"><g transform="matrix(1,0,0,1,75.54432,99.84036047936084)"><svg viewBox="0 0 244.43135999999998 47.519279041278295" height="47.519279041278295" width="244.43135999999998"><g><svg viewBox="0 0 244.43135999999998 47.519279041278295" height="47.519279041278295" width="244.43135999999998"><g><svg viewBox="0 0 244.43135999999998 47.519279041278295" height="47.519279041278295" width="244.43135999999998"><g><svg viewBox="0 0 244.43135999999998 47.519279041278295" height="47.519279041278295" width="244.43135999999998"><g><svg viewBox="0 0 244.43135999999998 47.519279041278295" height="47.519279041278295" width="244.43135999999998"><g><svg viewBox="0 0 244.43135999999998 47.519279041278295" height="47.519279041278295" width="244.43135999999998"><g transform="matrix(1,0,0,1,0,0)"><svg width="244.43135999999998" viewBox="4.5 -42.95000076293945 225.27999877929688 43.79999923706055" height="47.519279041278295" data-palette-color="#8055c9"><path d="M17.65-28.25Q22.75-28.25 25.23-25.55 27.7-22.85 27.7-16.65L27.7-16.65 27.7 0 23 0 23-16.65Q23-20.55 21.68-22.2 20.35-23.85 17-23.85L17-23.85Q13.1-23.85 9.2-20.45L9.2-20.45 9.2 0 4.5 0 4.5-27.65 9.2-27.65 9.2-24.7Q13.3-28.25 17.65-28.25L17.65-28.25ZM44.9-38.6Q43.15-38.6 42.52-37.88 41.9-37.15 41.9-35.15L41.9-35.15 41.9-27.65 47.4-27.65 47.4-23.25 41.9-23.25 41.9 0 37.2 0 37.2-23.25 33.8-23.25 33.8-27.65 37.2-27.65 37.2-36.4Q37.2-39.95 38.85-41.45 40.5-42.95 44.25-42.95L44.25-42.95Q45.45-42.95 47.4-42.6L47.4-42.6 47.4-38.3Q46.25-38.6 44.9-38.6L44.9-38.6ZM65.2-22.95L58.8-22.95 58.8-7.15Q58.8-5.15 59.42-4.42 60.05-3.7 61.75-3.7L61.75-3.7Q63.25-3.7 64.95-4.1L64.95-4.1 64.95 0.15Q62.7 0.65 60.95 0.65L60.95 0.65Q57.15 0.65 55.62-0.9 54.1-2.45 54.1-6.1L54.1-6.1 54.1-22.95 50.5-22.95 50.5-27.3 54.1-27.3 54.1-36.8 58.8-36.8 58.8-27.3 65.2-27.3 65.2-22.95ZM95.94-28.25Q101.04-28.25 103.52-25.55 105.99-22.85 105.99-16.65L105.99-16.65 105.99 0 101.29 0 101.29-16.65Q101.29-20.55 99.97-22.2 98.64-23.85 95.29-23.85L95.29-23.85Q91.39-23.85 87.49-20.45L87.49-20.45 87.49 0 82.79 0 82.79-27.65 87.49-27.65 87.49-24.7Q91.59-28.25 95.94-28.25L95.94-28.25ZM126.69 0.85Q122.29 0.85 119.21-1.07 116.14-3 114.59-6.33 113.04-9.65 113.04-13.8L113.04-13.8Q113.04-17.95 114.59-21.28 116.14-24.6 119.21-26.53 122.29-28.45 126.69-28.45L126.69-28.45Q131.09-28.45 134.16-26.53 137.24-24.6 138.76-21.28 140.29-17.95 140.29-13.8L140.29-13.8Q140.29-9.65 138.76-6.33 137.24-3 134.16-1.07 131.09 0.85 126.69 0.85L126.69 0.85ZM126.69-3.4Q130.84-3.4 133.11-6.3 135.39-9.2 135.39-13.8L135.39-13.8Q135.39-18.4 133.11-21.28 130.84-24.15 126.69-24.15L126.69-24.15Q122.54-24.15 120.24-21.28 117.94-18.4 117.94-13.8L117.94-13.8Q117.94-9.2 120.24-6.3 122.54-3.4 126.69-3.4L126.69-3.4ZM159.64-22.95L153.24-22.95 153.24-7.15Q153.24-5.15 153.86-4.42 154.49-3.7 156.19-3.7L156.19-3.7Q157.69-3.7 159.39-4.1L159.39-4.1 159.39 0.15Q157.14 0.65 155.39 0.65L155.39 0.65Q151.59 0.65 150.06-0.9 148.53-2.45 148.53-6.1L148.53-6.1 148.53-22.95 144.94-22.95 144.94-27.3 148.53-27.3 148.53-36.8 153.24-36.8 153.24-27.3 159.64-27.3 159.64-22.95ZM166.23-32.85L166.23-40.4 170.93-40.4 170.93-32.85 166.23-32.85ZM166.23 0L166.23-27.65 170.93-27.65 170.93 0 166.23 0ZM191.63 0.85Q185.18 0.8 181.71-3.15 178.23-7.1 178.23-13.85L178.23-13.85Q178.23-20.6 181.71-24.5 185.18-28.4 191.63-28.45L191.63-28.45Q193.88-28.45 195.5-28.13 197.13-27.8 198.98-27.05L198.98-27.05 198.98-22.5Q197.18-23.35 195.56-23.7 193.93-24.05 191.98-24.05L191.98-24.05Q187.33-24 185.23-21.28 183.13-18.55 183.13-13.9L183.13-13.9Q183.13-9.15 185.23-6.35 187.33-3.55 191.88-3.5L191.88-3.5Q195.43-3.5 199.63-5.65L199.63-5.65 201.13-1.55Q196.58 0.85 191.63 0.85L191.63 0.85ZM210.43-13.45Q210.53-8.85 212.73-6.1 214.93-3.35 219.73-3.35L219.73-3.35Q223.38-3.35 227.73-5.4L227.73-5.4 229.18-1.5Q224.63 0.85 219.33 0.85L219.33 0.85Q214.93 0.85 211.83-1 208.73-2.85 207.13-6.15 205.53-9.45 205.53-13.85L205.53-13.85Q205.53-18.5 207.2-21.78 208.88-25.05 211.73-26.75 214.58-28.45 218.13-28.45L218.13-28.45Q223.58-28.45 226.68-25.05 229.78-21.65 229.78-15.3L229.78-15.3 229.78-13.45 210.43-13.45ZM218.13-24.25Q211.93-24.25 210.73-17.4L210.73-17.4 224.83-17.4Q224.58-20.9 222.93-22.58 221.28-24.25 218.13-24.25L218.13-24.25Z" opacity="1" transform="matrix(1,0,0,1,0,0)" fill="#8055c9" class="undefined-text-0" data-fill-palette-color="primary" id="text-0"></path></svg></g></svg></g></svg></g></svg></g><g></g></svg></g></svg></g></svg></g><g><path d="M80.657 88.622A122.216 122.216 0 0 1 314.863 88.622L310.578 88.622A117.93 117.93 0 0 0 84.942 88.622L80.657 88.622M80.657 158.578A122.216 122.216 0 0 0 314.863 158.578L310.578 158.578A117.93 117.93 0 0 1 84.942 158.578L80.657 158.578" fill="#5827ad" stroke="transparent" data-fill-palette-color="tertiary"></path></g></svg></g><defs></defs></svg><rect width="395.52" height="247.2" fill="none" stroke="none" visibility="hidden"></rect></g></svg></g></svg>